<svg xmlns="http://www.w3.org/2000/svg" width="480pt" height="290pt" viewBox="0 0 480 290" version="1.1" xmlns:xlink="http://www.w3.org/1999/xlink">
  <g id="surface2" transform="matrix(1,0,0,1,-0.5,-0.5)" data-tpl_matrix="1,0,0,1,-0.5,-0.5">
    <path style="stroke:none;fill-rule:evenodd;fill:rgb(20.392157%,20.000000%,20.000000%);fill-opacity:1" d="M 240.5 65.148438 L 211.601562 92 L 220.851562 100.550781 L 240.5 82.300781 L 318.75 154.949219 L 337.199219 154.949219 L 240.5 65.148438 "/>
    <path style="stroke:none;fill-rule:evenodd;fill:rgb(76.078431%,15.686275%,17.647059%);fill-opacity:1" d="M 182.699219 65.148438 L 86 154.949219 L 104.449219 154.949219 L 182.699219 82.300781 L 260.949219 154.949219 L 279.398438 154.949219 L 182.699219 65.148438 "/>
    <path style="stroke:none;fill-rule:evenodd;fill:rgb(76.078431%,15.686275%,17.647059%);fill-opacity:1" d="M 202.800781 116.449219 L 183.898438 116.449219 L 183.898438 134.5 L 202.800781 134.5 L 202.800781 116.449219 "/>
    <path style="stroke:none;fill-rule:evenodd;fill:rgb(76.078431%,15.686275%,17.647059%);fill-opacity:1" d="M 183.898438 155 L 202.800781 155 L 202.800781 136.949219 L 183.898438 136.949219 L 183.898438 155 "/>
    <path style="stroke:none;fill-rule:evenodd;fill:rgb(76.078431%,15.686275%,17.647059%);fill-opacity:1" d="M 181.5 116.449219 L 162.601562 116.449219 L 162.601562 134.5 L 181.5 134.5 L 181.5 116.449219 "/>
    <path style="stroke:none;fill-rule:evenodd;fill:rgb(76.078431%,15.686275%,17.647059%);fill-opacity:1" d="M 162.601562 155 L 181.5 155 L 181.5 136.949219 L 162.601562 136.949219 L 162.601562 155 "/>
    <path style="stroke:none;fill-rule:evenodd;fill:rgb(40.392157%,40.392157%,40.392157%);fill-opacity:1" d="M 298.25 65.148438 L 269.351562 92 L 278.601562 100.550781 L 298.25 82.300781 L 376.5 154.949219 L 394.949219 154.949219 L 298.25 65.148438 "/>
  </g>
  <g id="surface4">
    <text style="fill:rgb(194,40,45)" font-family="Palermo" font-size="50" transform="matrix(1,0,0,1,80.2,213.75)" xml:space="preserve"><![CDATA[AS SERVICES]]></text>
  </g>
</svg>